<?xml version="1.0" encoding="utf-8"?>
<!-- Generator: Adobe Illustrator 27.8.1, SVG Export Plug-In . SVG Version: 6.00 Build 0)  -->
<svg version="1.1" id="Layer_1" xmlns="http://www.w3.org/2000/svg" xmlns:xlink="http://www.w3.org/1999/xlink" x="0px" y="0px"
	 viewBox="0 0 1200 1200" style="enable-background:new 0 0 1200 1200;" xml:space="preserve">
<style type="text/css">
	.st0{fill:#134392;}
	.st1{fill:#0D935E;}
	.st2{fill:#134392;stroke:#134392;stroke-width:3;stroke-miterlimit:10;}
</style>
<path class="st0" d="M445.05,608.69H229.23c2.87-25.24,13.39-50.18,30.73-68.64c15.51-16.51,37.44-26.42,59.96-28.06
	c13.24-0.96,26.72,1.15,38.95,6.35c21.7,9.23,36.85,28.3,43.99,50.45c0.22,0.68,3.19,10.69,3.3,10.67c0.01,0,29.45,0,29.45,0
	c-14.31-67.36-70.7-106.45-135.42-93.76c-60.17,11.74-94.87,69.55-100.08,122.97h-10.72c-9.84,0-17.82,7.98-17.82,17.82v207.98
	c0,9.84,7.98,17.82,17.82,17.82h255.67c9.84,0,17.82-7.98,17.82-17.82V626.51C462.87,616.67,454.89,608.69,445.05,608.69z
	 M433.85,823.29H200.57V637.71h233.27V823.29z"/>
<rect x="244.95" y="715.91" class="st0" width="189.38" height="29.16"/>
<g>
	<g>
		<path class="st1" d="M595.14,571.27h2.46c4.42,0,9.74,0.25,15.97,0.74c6.22,0.49,12.2,1.97,17.93,4.42
			c5.73,2.46,10.6,6.23,14.62,11.3c4.01,5.08,6.02,12.28,6.02,21.62c0,1.15,0,3.16,0,6.02c0,2.87,0,5.94,0,9.21
			c0,3.28-0.04,6.35-0.12,9.21c-0.08,2.87-0.12,4.87-0.12,6.02c-0.33,8.35-1.72,15.07-4.18,20.14c-2.46,5.08-7.46,9.67-14.99,13.76
			c-3.93,2.13-8.07,3.4-12.41,3.81c-4.34,0.41-8.72,0.61-13.14,0.61h-94.83v-20.14h87.71c3.44,0,6.79-0.2,10.07-0.61
			c3.27-0.41,6.26-1.27,8.97-2.58c2.7-1.31,4.87-3.15,6.51-5.53c1.64-2.37,2.46-5.61,2.46-9.7v-29.73c0-3.11-0.78-5.73-2.33-7.86
			c-1.56-2.13-3.56-3.89-6.02-5.28c-2.46-1.39-5.16-2.42-8.11-3.07c-2.95-0.65-5.9-0.98-8.84-0.98H534.7
			c-8.19-1.64-14.17-4.75-17.93-9.34c-3.77-4.58-5.65-11.14-5.65-19.65v-42.75c0-7.37,0.74-13.43,2.21-18.18
			c1.47-4.75,3.72-8.48,6.76-11.18c3.03-2.7,6.92-4.58,11.67-5.65c4.75-1.06,10.32-1.6,16.71-1.6h99.74v21.37H542.32
			c-3.77,0-6.1,1.72-7,5.16c-0.9,3.44-1.35,7.62-1.35,12.53v40.04c0.49,1.47,1.23,2.79,2.21,3.93c0.82,0.98,1.97,1.88,3.44,2.7
			c1.47,0.82,3.35,1.23,5.65,1.23H595.14z"/>
		<path class="st1" d="M827.06,603.7c0.16,2.13,0.24,5.49,0.24,10.07c0,4.59,0,9.26,0,14v19.65c-1.47,7.37-4.05,13.11-7.74,17.2
			c-3.69,4.1-8.07,7.12-13.14,9.09c-5.08,1.96-10.65,3.19-16.71,3.68c-6.06,0.49-12.12,0.74-18.18,0.74h-91.15V484.3h111.29
			c4.09,0,8.02,1.03,11.79,3.07c3.76,2.05,7.08,4.83,9.95,8.35c2.86,3.52,5.16,7.62,6.88,12.28s2.58,9.62,2.58,14.86v27.02
			c0,2.3-0.16,4.54-0.49,6.76c-0.33,2.21-1.02,4.46-2.09,6.76c-1.07,2.3-2.58,4.79-4.54,7.49c-1.97,2.7-4.51,5.61-7.62,8.72
			c3.44,1.15,6.55,2.79,9.34,4.91c2.29,1.8,4.42,4.26,6.39,7.37C825.83,595.02,826.89,598.95,827.06,603.7z M800.03,522.14
			c0-6.39-1.56-10.81-4.67-13.27c-2.13-1.64-4.91-2.58-8.35-2.83c-3.44-0.25-8.6-0.37-15.48-0.37H702.5v65.35h69.28
			c5.73,0,10.64-0.33,14.74-0.98c4.09-0.65,7.04-1.72,8.85-3.19c3.11-2.95,4.67-8.02,4.67-15.23V522.14z M802.73,606.65
			c0-6.39-1.56-10.81-4.67-13.27c-2.13-1.64-4.92-2.58-8.36-2.83c-3.44-0.25-8.6-0.37-15.48-0.37H702.5v67.81h71.98
			c5.73,0,10.65-0.33,14.74-0.98c4.09-0.65,7.04-1.72,8.85-3.19c3.11-2.95,4.67-8.02,4.67-15.23V606.65z"/>
		<path class="st1" d="M984.29,582.82h22.6v95.32H889.95c-3.6-0.16-7.29-0.98-11.05-2.46c-3.77-1.47-7.21-3.44-10.32-5.9
			c-3.11-2.46-5.65-5.49-7.62-9.09c-1.96-3.6-2.95-7.78-2.95-12.53V516.73c0-3.11,0.49-6.55,1.47-10.32
			c0.98-3.77,2.66-7.29,5.04-10.56c2.37-3.27,5.44-6.06,9.21-8.35c3.77-2.29,8.35-3.44,13.76-3.44h116.94v21.62H896.09
			c-3.6,0-6.47,0.37-8.6,1.11c-2.13,0.74-3.73,1.8-4.79,3.19c-1.07,1.39-1.76,3.03-2.09,4.91c-0.33,1.89-0.49,3.97-0.49,6.26v120.38
			c0,2.79,0.61,5.24,1.84,7.37c1.23,2.13,2.91,3.85,5.04,5.16c2.13,1.31,4.5,2.3,7.12,2.95c2.62,0.66,5.32,0.98,8.11,0.98h82.06
			V582.82z"/>
	</g>
	<g>
		<path class="st2" d="M528.25,728.57h0.5c0.91,0,2,0.05,3.28,0.15c1.28,0.1,2.51,0.4,3.68,0.91c1.18,0.5,2.18,1.28,3,2.32
			c0.82,1.04,1.24,2.52,1.24,4.44c0,0.24,0,0.65,0,1.24c0,0.59,0,1.22,0,1.89c0,0.67-0.01,1.31-0.03,1.89
			c-0.02,0.59-0.03,1-0.03,1.24c-0.07,1.71-0.35,3.1-0.86,4.14c-0.5,1.04-1.53,1.99-3.08,2.83c-0.81,0.44-1.66,0.7-2.55,0.78
			c-0.89,0.09-1.79,0.13-2.7,0.13h-19.48v-4.14h18.02c0.71,0,1.4-0.04,2.07-0.13c0.67-0.08,1.29-0.26,1.84-0.53
			c0.56-0.27,1-0.65,1.34-1.13c0.34-0.49,0.5-1.15,0.5-1.99v-6.11c0-0.64-0.16-1.18-0.48-1.61c-0.32-0.44-0.73-0.8-1.24-1.09
			c-0.5-0.29-1.06-0.5-1.67-0.63c-0.61-0.13-1.21-0.2-1.82-0.2h-13.98c-1.68-0.34-2.91-0.98-3.68-1.92
			c-0.77-0.94-1.16-2.29-1.16-4.04v-8.78c0-1.51,0.15-2.76,0.45-3.73c0.3-0.98,0.77-1.74,1.39-2.3c0.62-0.56,1.42-0.94,2.4-1.16
			c0.98-0.22,2.12-0.33,3.43-0.33h20.49v4.39h-21.75c-0.77,0-1.25,0.35-1.44,1.06c-0.19,0.71-0.28,1.56-0.28,2.57v8.23
			c0.1,0.3,0.25,0.57,0.45,0.81c0.17,0.2,0.4,0.39,0.71,0.56c0.3,0.17,0.69,0.25,1.16,0.25H528.25z"/>
		<path class="st2" d="M564.28,719.79c1.62,0,2.9,0.25,3.86,0.73c0.96,0.49,1.71,1.1,2.25,1.84c0.54,0.74,0.89,1.56,1.06,2.47
			c0.17,0.91,0.25,1.77,0.25,2.57v10.35h-21.35v2.52c0,0.17-0.01,0.44-0.03,0.81c-0.02,0.37-0.03,0.66-0.03,0.86
			c0,1.01,0.05,1.81,0.15,2.4c0.1,0.59,0.26,1.03,0.48,1.34c0.22,0.3,0.5,0.5,0.83,0.58c0.34,0.09,0.76,0.13,1.26,0.13h17.87v4.09
			h-18.62c-2.02,0-3.61-0.39-4.77-1.16c-1.16-0.77-1.74-1.92-1.74-3.43v-19.73c0-0.84,0.16-1.64,0.48-2.4
			c0.32-0.76,0.77-1.43,1.36-2.02c0.59-0.59,1.3-1.06,2.12-1.41c0.82-0.35,1.76-0.53,2.8-0.53H564.28z M567.11,728.37
			c-0.03-0.94-0.16-1.69-0.38-2.25c-0.22-0.55-0.51-0.98-0.88-1.29c-0.37-0.3-0.8-0.5-1.29-0.58c-0.49-0.08-1.02-0.13-1.59-0.13
			h-7.72c-0.64,0-1.25,0.04-1.84,0.13c-0.59,0.09-1.11,0.26-1.56,0.53c-0.45,0.27-0.82,0.66-1.08,1.16c-0.27,0.5-0.4,1.2-0.4,2.07
			v5.65h16.76V728.37z"/>
		<path class="st2" d="M578.01,750.52v-41.74h4.54v41.74H578.01z"/>
		<path class="st2" d="M593.7,750.52v-26.4h-6.56v-4.29h6.56v-3.48c0-1.21,0.18-2.29,0.56-3.23c0.37-0.94,0.98-1.73,1.82-2.37
			c0.84-0.64,1.93-1.13,3.25-1.46c1.33-0.34,2.97-0.5,4.92-0.5c0.61,0,1.22,0.02,1.84,0.05c0.62,0.03,1.34,0.08,2.14,0.15v4.09
			l-5.15-0.25c-0.64,0-1.25,0.02-1.82,0.05c-0.57,0.04-1.09,0.16-1.54,0.38s-0.82,0.57-1.08,1.06c-0.27,0.49-0.4,1.17-0.4,2.04v3.48
			h9.99v4.29h-9.99v26.4H593.7z"/>
		<path class="st2" d="M668.15,735.23c0.03,0.44,0.05,1.13,0.05,2.07s0,1.9,0,2.88v4.04c-0.3,1.51-0.83,2.69-1.59,3.53
			c-0.76,0.84-1.66,1.46-2.7,1.87c-1.04,0.4-2.19,0.66-3.43,0.76c-1.25,0.1-2.49,0.15-3.73,0.15h-18.72V710.7h22.86
			c0.84,0,1.65,0.21,2.42,0.63c0.77,0.42,1.45,0.99,2.04,1.71c0.59,0.72,1.06,1.57,1.41,2.52c0.35,0.96,0.53,1.98,0.53,3.05v5.55
			c0,0.47-0.03,0.93-0.1,1.39c-0.07,0.45-0.21,0.92-0.43,1.39c-0.22,0.47-0.53,0.98-0.93,1.54c-0.4,0.55-0.93,1.15-1.56,1.79
			c0.71,0.24,1.35,0.57,1.92,1.01c0.47,0.37,0.91,0.88,1.31,1.51C667.89,733.45,668.11,734.25,668.15,735.23z M662.6,718.47
			c0-1.31-0.32-2.22-0.96-2.73c-0.44-0.34-1.01-0.53-1.72-0.58c-0.71-0.05-1.77-0.08-3.18-0.08h-14.18v13.43h14.23
			c1.18,0,2.19-0.07,3.03-0.2c0.84-0.13,1.45-0.35,1.82-0.66c0.64-0.61,0.96-1.65,0.96-3.13V718.47z M663.15,735.83
			c0-1.31-0.32-2.22-0.96-2.73c-0.44-0.34-1.01-0.53-1.72-0.58c-0.71-0.05-1.77-0.08-3.18-0.08h-14.74v13.93h14.79
			c1.18,0,2.19-0.07,3.03-0.2c0.84-0.13,1.45-0.35,1.82-0.66c0.64-0.6,0.96-1.65,0.96-3.13V735.83z"/>
		<path class="st2" d="M680.87,750.52c-1.92,0-3.37-0.39-4.37-1.16c-0.99-0.77-1.66-1.85-1.99-3.23v-8.88
			c0.2-1.21,0.66-2.15,1.36-2.83c0.71-0.67,1.53-1.16,2.47-1.46c0.94-0.3,1.92-0.49,2.93-0.56c1.01-0.07,1.92-0.1,2.73-0.1h11.05
			v-5.35c0-0.71-0.1-1.25-0.3-1.64c-0.2-0.39-0.52-0.66-0.96-0.83c-0.44-0.17-1.03-0.27-1.77-0.3c-0.74-0.03-1.63-0.05-2.68-0.05
			h-13.58v-4.29h18.77c0.67,0,1.33,0.14,1.97,0.43c0.64,0.29,1.2,0.7,1.69,1.24c0.49,0.54,0.87,1.2,1.16,1.99s0.43,1.69,0.43,2.7
			v24.33H680.87z M695.2,736.59h-12.36c-1.51,0-2.53,0.34-3.05,1.03c-0.52,0.69-0.78,1.79-0.78,3.31v1.66
			c0,0.37,0.04,0.77,0.13,1.21c0.08,0.44,0.26,0.85,0.53,1.24c0.27,0.39,0.66,0.71,1.16,0.96c0.5,0.25,1.18,0.38,2.02,0.38h12.36
			V736.59z"/>
		<path class="st2" d="M705.9,750.52v-41.74h4.54v41.74H705.9z"/>
		<path class="st2" d="M723.41,750.52c-1.92,0-3.37-0.39-4.37-1.16c-0.99-0.77-1.66-1.85-1.99-3.23v-8.88
			c0.2-1.21,0.66-2.15,1.36-2.83c0.71-0.67,1.53-1.16,2.47-1.46c0.94-0.3,1.92-0.49,2.93-0.56c1.01-0.07,1.92-0.1,2.73-0.1h11.05
			v-5.35c0-0.71-0.1-1.25-0.3-1.64c-0.2-0.39-0.52-0.66-0.96-0.83c-0.44-0.17-1.03-0.27-1.77-0.3s-1.63-0.05-2.67-0.05h-13.58v-4.29
			h18.78c0.67,0,1.33,0.14,1.97,0.43c0.64,0.29,1.2,0.7,1.69,1.24c0.49,0.54,0.87,1.2,1.16,1.99c0.29,0.79,0.43,1.69,0.43,2.7v24.33
			H723.41z M737.75,736.59h-12.37c-1.51,0-2.53,0.34-3.05,1.03c-0.52,0.69-0.78,1.79-0.78,3.31v1.66c0,0.37,0.04,0.77,0.13,1.21
			c0.08,0.44,0.26,0.85,0.53,1.24c0.27,0.39,0.66,0.71,1.16,0.96c0.5,0.25,1.18,0.38,2.02,0.38h12.37V736.59z"/>
		<path class="st2" d="M748.44,750.52v-30.69h18.02c1.61,0.24,2.93,0.61,3.96,1.13c1.03,0.52,1.83,1.19,2.42,1.99
			c0.59,0.81,0.99,1.76,1.21,2.85c0.22,1.09,0.33,2.35,0.33,3.76v20.94h-4.8v-21.35c0-1.25-0.22-2.21-0.66-2.9
			c-0.44-0.69-1.01-1.19-1.72-1.51c-0.71-0.32-1.52-0.5-2.45-0.55c-0.93-0.05-1.88-0.08-2.85-0.08h-8.93v26.4H748.44z"/>
		<path class="st2" d="M804.67,750.52h-17.31c-0.74,0-1.51-0.1-2.3-0.3c-0.79-0.2-1.51-0.57-2.14-1.11
			c-0.64-0.54-1.17-1.25-1.59-2.12c-0.42-0.88-0.63-2-0.63-3.38v-15.85c0-1.95,0.27-3.46,0.81-4.54c0.54-1.08,1.19-1.87,1.94-2.37
			c0.76-0.5,1.54-0.8,2.35-0.88c0.81-0.08,1.46-0.13,1.97-0.13h16.91v4.29h-15.75c-0.98,0-1.84,0.24-2.57,0.71
			c-0.74,0.47-1.11,1.21-1.11,2.22v15.19c0,0.44,0.01,0.9,0.03,1.39c0.02,0.49,0.1,0.94,0.25,1.36c0.15,0.42,0.4,0.77,0.73,1.03
			c0.34,0.27,0.81,0.4,1.41,0.4h17.01V750.52z"/>
		<path class="st2" d="M829.6,719.79c1.61,0,2.9,0.25,3.86,0.73c0.96,0.49,1.71,1.1,2.25,1.84c0.54,0.74,0.89,1.56,1.06,2.47
			c0.17,0.91,0.25,1.77,0.25,2.57v10.35h-21.35v2.52c0,0.17-0.01,0.44-0.03,0.81c-0.02,0.37-0.03,0.66-0.03,0.86
			c0,1.01,0.05,1.81,0.15,2.4c0.1,0.59,0.26,1.03,0.48,1.34c0.22,0.3,0.5,0.5,0.83,0.58c0.34,0.09,0.76,0.13,1.26,0.13h17.87v4.09
			h-18.62c-2.02,0-3.61-0.39-4.77-1.16c-1.16-0.77-1.74-1.92-1.74-3.43v-19.73c0-0.84,0.16-1.64,0.48-2.4
			c0.32-0.76,0.77-1.43,1.36-2.02c0.59-0.59,1.29-1.06,2.12-1.41c0.82-0.35,1.76-0.53,2.8-0.53H829.6z M832.43,728.37
			c-0.03-0.94-0.16-1.69-0.38-2.25s-0.51-0.98-0.88-1.29c-0.37-0.3-0.8-0.5-1.29-0.58c-0.49-0.08-1.02-0.13-1.59-0.13h-7.72
			c-0.64,0-1.25,0.04-1.84,0.13c-0.59,0.09-1.11,0.26-1.56,0.53c-0.45,0.27-0.82,0.66-1.08,1.16s-0.4,1.2-0.4,2.07v5.65h16.76
			V728.37z"/>
		<path class="st2" d="M894,730.94h4.64v19.58h-24.02c-0.74-0.03-1.5-0.2-2.27-0.5c-0.77-0.3-1.48-0.71-2.12-1.21
			s-1.16-1.13-1.56-1.87c-0.4-0.74-0.6-1.6-0.6-2.57v-27c0-0.64,0.1-1.35,0.3-2.12c0.2-0.77,0.55-1.5,1.03-2.17
			c0.49-0.67,1.12-1.25,1.89-1.72c0.77-0.47,1.72-0.71,2.83-0.71h24.02v4.44h-22.26c-0.74,0-1.33,0.08-1.77,0.23
			c-0.44,0.15-0.77,0.37-0.98,0.65c-0.22,0.29-0.36,0.62-0.43,1.01c-0.07,0.39-0.1,0.82-0.1,1.29V743c0,0.57,0.13,1.08,0.38,1.51
			c0.25,0.44,0.6,0.79,1.03,1.06c0.44,0.27,0.93,0.47,1.46,0.61c0.54,0.14,1.09,0.2,1.66,0.2H894V730.94z"/>
		<path class="st2" d="M929.43,719.84v30.69h-17.11c-1.55-0.24-2.81-0.6-3.79-1.11c-0.98-0.5-1.75-1.16-2.32-1.97
			c-0.57-0.81-0.97-1.76-1.19-2.85c-0.22-1.09-0.33-2.35-0.33-3.76v-20.99h4.54v21.55c0,1.25,0.23,2.2,0.68,2.88
			c0.45,0.67,1.06,1.17,1.82,1.49c0.76,0.32,1.61,0.5,2.57,0.56c0.96,0.05,1.93,0.08,2.9,0.08h7.32v-26.55H929.43z"/>
		<path class="st2" d="M935.99,714.91v-6.16h4.54v6.16H935.99z M935.99,750.52v-30.69h4.54v30.69H935.99z"/>
		<path class="st2" d="M974.65,708.78v41.74h-19.99c-1.21,0-2.29-0.22-3.23-0.66c-0.94-0.44-1.72-1.02-2.35-1.74
			c-0.62-0.72-1.09-1.53-1.41-2.42c-0.32-0.89-0.48-1.79-0.48-2.7v-15.09c0-0.81,0.03-1.58,0.08-2.32c0.05-0.74,0.19-1.44,0.43-2.09
			c0.24-0.66,0.6-1.24,1.08-1.74c0.49-0.5,1.17-0.94,2.04-1.31c0.64-0.27,1.3-0.44,1.99-0.5c0.69-0.07,1.35-0.1,1.99-0.1h15.19
			v-11.05H974.65z M970.06,724.13h-13.32c-0.57,0-1.14,0.04-1.72,0.1c-0.57,0.07-1.1,0.19-1.59,0.38c-0.49,0.19-0.89,0.45-1.21,0.78
			c-0.32,0.34-0.5,0.77-0.53,1.31c0,1.25,0.01,2.59,0.03,4.04c0.02,1.45,0.03,2.88,0.03,4.29c0,1.41,0,2.74,0,3.99s0,2.27,0,3.08
			c0,0.47,0.03,0.97,0.1,1.49c0.07,0.52,0.2,0.99,0.4,1.41c0.2,0.42,0.5,0.77,0.88,1.03c0.39,0.27,0.9,0.4,1.54,0.4h15.39V724.13z"
			/>
		<path class="st2" d="M999.73,719.79c1.61,0,2.9,0.25,3.86,0.73c0.96,0.49,1.71,1.1,2.25,1.84c0.54,0.74,0.89,1.56,1.06,2.47
			c0.17,0.91,0.25,1.77,0.25,2.57v10.35H985.8v2.52c0,0.17-0.01,0.44-0.03,0.81c-0.02,0.37-0.03,0.66-0.03,0.86
			c0,1.01,0.05,1.81,0.15,2.4c0.1,0.59,0.26,1.03,0.48,1.34c0.22,0.3,0.5,0.5,0.83,0.58c0.34,0.09,0.76,0.13,1.26,0.13h17.87v4.09
			h-18.62c-2.02,0-3.61-0.39-4.77-1.16c-1.16-0.77-1.74-1.92-1.74-3.43v-19.73c0-0.84,0.16-1.64,0.48-2.4
			c0.32-0.76,0.77-1.43,1.36-2.02c0.59-0.59,1.29-1.06,2.12-1.41c0.82-0.35,1.76-0.53,2.8-0.53H999.73z M1002.56,728.37
			c-0.03-0.94-0.16-1.69-0.38-2.25s-0.51-0.98-0.88-1.29c-0.37-0.3-0.8-0.5-1.29-0.58c-0.49-0.08-1.02-0.13-1.59-0.13h-7.72
			c-0.64,0-1.25,0.04-1.84,0.13c-0.59,0.09-1.11,0.26-1.56,0.53c-0.45,0.27-0.82,0.66-1.08,1.16c-0.27,0.5-0.4,1.2-0.4,2.07v5.65
			h16.76V728.37z"/>
	</g>
</g>
<g>
	<rect x="531.6" y="843.92" class="st0" width="8.37" height="8.37"/>
	<rect x="519.65" y="843.92" class="st0" width="8.37" height="8.37"/>
	<rect x="550.29" y="781.76" class="st0" width="8.37" height="8.37"/>
	<path class="st0" d="M561.33,820.42h-9.8h-1.67h-17.49v7.57h5.7c0.29,2.6-1.87,3.93-6.49,3.98h-11.16v-25.5h-8.77v24.86
		c0.32,5.82,3.43,8.69,9.32,8.61h13.87c7.2-0.45,11.33-4.44,12.39-11.95h2.63h1.67h19.13v-7.57v-24.31h-9.32V820.42z"/>
	<rect x="562.25" y="781.76" class="st0" width="8.37" height="8.37"/>
	<rect x="576.11" y="780.17" class="st0" width="9.32" height="47.82"/>
	<rect x="596.12" y="781.76" class="st0" width="8.37" height="8.37"/>
	<path class="st0" d="M627.55,820.42h-3.83h-1.28h-2.03c0.21-3.83-0.52-7.86-2.19-12.11c-1.67-4.25-4.81-7.74-9.4-10.48
		c-3.56-2.02-7.92-2.9-13.07-2.63v8.21c10.44,0.32,15.82,5.46,16.14,15.42v1.59h-22.12v7.57h32.67h1.28h13.15v-7.57v-40.25h-9.32
		V820.42z"/>
	<rect x="641.74" y="780.17" class="st0" width="9.32" height="47.82"/>
	<rect x="696.01" y="781.76" class="st0" width="8.37" height="8.37"/>
	<path class="st0" d="M711.51,823.84c0.29,5.42-1.73,8.09-6.06,8.01h-7.81c-3.8-0.05-5.75-2.05-5.86-5.98v-17.81h-9.52v14.03
		c-0.08,6.64,1.04,11.27,3.35,13.89c2.31,2.62,5.62,3.94,9.92,3.96h10.92c4.36,0.26,7.65-0.57,9.88-2.51
		c2.23-1.94,3.68-5.09,4.34-9.44v-7.57v-24.31h-9.17V823.84z"/>
	<rect x="725.46" y="780.17" class="st0" width="9.32" height="47.82"/>
	<rect x="744.26" y="781.76" class="st0" width="8.37" height="8.37"/>
	<path class="st0" d="M766.86,820.42h-9.96h-1.51h-2.43v-24.31h-8.96v26.58c0.03,6.06-2.15,9.1-6.54,9.12v8.13
		c8.5,0.37,13.51-3.61,15.02-11.95h2.91h1.51h19.29v-7.57v-24.31h-9.32V820.42z"/>
	<rect x="755.82" y="781.76" class="st0" width="8.37" height="8.37"/>
	<rect x="767.77" y="781.76" class="st0" width="8.37" height="8.37"/>
	<polygon class="st0" points="809.85,820.42 800.84,820.42 800.84,780.17 791.52,780.17 791.52,820.42 782.04,820.42 782.04,827.99 
		819.17,827.99 819.17,820.42 819.17,780.17 809.85,780.17 	"/>
	<rect x="823.64" y="780.17" class="st0" width="9.32" height="47.82"/>
	<rect x="933.89" y="781.76" class="st0" width="8.37" height="8.37"/>
	<rect x="927.91" y="772.08" class="st0" width="7.97" height="7.97"/>
	<path class="st0" d="M946.52,820.42h-9.8v-18.33H927v18.33h-9.8v-12.35h-9.72v12.35h-10.2H896h-2.03
		c0.21-3.83-0.52-7.86-2.19-12.11s-4.81-7.74-9.4-10.48c-3.83-2.02-8.18-2.9-13.07-2.63v8.21c10.44,0.32,15.82,5.46,16.14,15.42
		v1.59h-22.12v7.57H896h1.28h58.97v-7.57v-24.31h-9.72V820.42z"/>
	<rect x="921.94" y="781.76" class="st0" width="8.37" height="8.37"/>
	<path class="st0" d="M994.14,796.11c-9.72,0.24-14.73,4.82-15.02,13.75v10.56h-1.55h-1.4h-2.55v-24.31h-8.96v26.58
		c0.03,6.06-2.15,9.1-6.54,9.12v8.13c8.5,0.37,13.51-3.61,15.02-11.95h3.03h1.4h1.55v7.57h7.77c11,0.45,16.35-4.78,16.06-15.7
		v-23.75H994.14z M993.46,824.12c0.13,2.13-0.85,3.24-2.95,3.35h-2.03v-20.08c0.19-1.97,1.2-3.01,3.03-3.15h1.95V824.12z"/>
</g>
</svg>
