<?xml version="1.0" standalone="no"?>
<!DOCTYPE svg PUBLIC "-//W3C//DTD SVG 20010904//EN"
 "http://www.w3.org/TR/2001/REC-SVG-20010904/DTD/svg10.dtd">
<svg version="1.0" xmlns="http://www.w3.org/2000/svg"
 width="991.000000pt" height="991.000000pt" viewBox="0 0 991.000000 991.000000"
 preserveAspectRatio="xMidYMid meet">
<metadata>
Created by potrace 1.14, written by Peter Selinger 2001-2017
</metadata>
<g transform="translate(0.000000,991.000000) scale(0.100000,-0.100000)"
fill="#000000" stroke="none">
<path d="M2875 9479 c-307 -45 -612 -200 -871 -444 -169 -158 -312 -409 -349
-610 -19 -104 -25 -573 -13 -1035 l3 -135 55 0 55 0 -1 160 c-5 502 -5 771 1
855 17 266 113 462 331 676 236 234 522 379 819 418 203 27 398 7 583 -58 123
-43 255 -114 732 -396 250 -148 551 -324 620 -362 25 -14 61 -34 80 -45 218
-126 1663 -954 2455 -1408 286 -164 545 -312 575 -330 30 -18 75 -44 100 -57
25 -14 135 -77 245 -140 110 -63 236 -134 280 -158 199 -107 408 -228 495
-286 216 -144 379 -297 493 -463 69 -102 70 -104 115 -196 120 -246 148 -503
82 -760 -67 -261 -216 -534 -384 -700 -76 -75 -145 -124 -306 -215 -80 -45
-161 -91 -180 -102 -19 -11 -98 -57 -175 -101 -77 -44 -192 -110 -255 -147
-63 -37 -131 -77 -150 -87 -35 -20 -514 -300 -625 -365 -33 -20 -79 -46 -102
-59 -38 -22 -589 -344 -651 -380 -15 -9 -45 -26 -66 -38 -21 -12 -107 -62
-190 -111 -83 -48 -167 -97 -186 -107 -19 -11 -280 -163 -580 -338 -300 -174
-561 -326 -580 -337 -19 -11 -102 -60 -185 -108 -82 -48 -170 -98 -195 -112
-59 -34 -371 -215 -390 -228 -8 -5 -37 -22 -65 -38 -27 -16 -66 -38 -85 -49
-658 -384 -720 -418 -875 -466 -75 -24 -174 -46 -270 -62 -127 -21 -365 -8
-530 29 -104 24 -374 144 -415 186 -3 3 -30 24 -60 47 -251 190 -466 549 -495
828 -5 39 -8 402 -8 808 l0 738 -56 -3 -56 -3 0 -790 1 -790 26 -100 c90 -340
321 -660 613 -847 170 -110 316 -165 560 -214 17 -3 100 -8 185 -10 139 -4
280 7 375 29 250 59 348 102 665 287 96 57 218 128 270 158 52 30 230 134 395
230 165 96 315 183 332 193 18 11 48 27 66 38 17 10 235 136 482 281 248 144
470 274 495 288 25 14 180 104 345 200 165 96 316 184 335 195 19 11 114 66
210 122 96 56 191 111 210 122 19 11 60 35 90 53 30 18 74 43 97 56 23 13 201
117 395 230 194 114 367 215 383 224 17 9 138 80 270 157 132 77 368 213 525
302 380 217 371 211 505 346 184 186 320 438 397 734 26 100 31 137 34 271 4
202 -22 336 -100 518 -119 278 -340 527 -659 745 -38 26 -70 47 -72 47 -3 0
-29 15 -58 34 -29 19 -145 85 -258 147 -112 61 -330 184 -484 272 -154 88
-299 171 -322 184 -43 24 -256 146 -283 162 -30 18 -516 296 -539 309 -13 7
-49 27 -80 46 -31 18 -76 45 -101 58 -25 14 -103 59 -175 100 -71 41 -274 157
-450 258 -176 101 -345 197 -375 215 -54 32 -302 174 -370 212 -46 26 -211
121 -380 218 -74 43 -155 89 -180 103 -25 14 -180 104 -345 200 -165 96 -309
180 -320 186 -22 13 -121 72 -163 97 -81 49 -293 171 -400 230 -182 101 -288
140 -497 184 -49 11 -355 13 -420 4z"/>
<path d="M3322 6918 c-114 -17 -241 -107 -291 -206 -45 -88 -58 -200 -37 -301
11 -51 63 -137 110 -184 61 -61 132 -97 221 -111 131 -23 263 20 356 115 85
88 120 182 115 310 -11 240 -230 415 -474 377z"/>
<path d="M93 6514 c3 -3 20 -8 39 -10 18 -3 69 -16 113 -30 310 -100 513 -302
622 -619 13 -38 25 -80 28 -92 2 -13 10 -58 19 -100 33 -169 39 -272 39 -648
-1 -458 17 -580 109 -757 67 -129 195 -237 313 -264 39 -9 1385 -15 1386 -6 4
38 2 596 -2 604 -5 7 -185 11 -543 10 l-536 0 -1 47 c0 25 0 240 1 476 1 237
3 646 3 910 l2 480 -799 2 c-439 1 -796 -1 -793 -3z"/>
<path d="M7128 5984 c-2 -1 -30 -4 -63 -8 -225 -22 -451 -130 -616 -295 -311
-311 -384 -793 -182 -1196 127 -254 342 -422 643 -501 120 -32 376 -41 505
-18 186 33 329 91 490 199 148 100 212 164 176 177 -7 2 -256 236 -347 326
-15 15 -17 14 -96 -44 -70 -51 -168 -99 -245 -119 -177 -47 -317 6 -421 157
-37 54 -75 128 -69 135 3 2 302 4 665 4 498 0 661 3 665 12 2 7 2 65 0 131
-11 365 -151 657 -403 841 -111 81 -299 162 -415 179 -22 4 -55 9 -73 12 -32
6 -209 13 -214 8z m193 -513 c56 -27 92 -60 134 -126 31 -48 72 -171 61 -182
-6 -6 -637 -6 -643 1 -7 7 25 101 53 158 39 77 115 144 194 169 41 14 153 3
201 -20z"/>
<path d="M3009 5911 c0 -52 -1 -1882 0 -1907 l1 -22 382 2 383 1 0 980 0 980
-382 1 -383 1 -1 -36z"/>
<path d="M3943 5926 c4 -18 269 -716 391 -1031 24 -60 112 -291 196 -512 l152
-401 365 -1 364 0 19 43 c10 24 125 324 255 667 130 343 245 644 255 669 10
25 46 119 80 210 34 91 79 209 101 264 21 54 36 102 34 106 -2 4 -174 7 -381
6 l-377 -1 -59 -210 c-32 -115 -75 -266 -94 -335 -20 -69 -37 -132 -39 -140
-2 -8 -31 -114 -66 -235 -34 -121 -66 -239 -72 -262 -6 -24 -13 -43 -17 -43
-4 0 -14 26 -23 58 -9 31 -73 260 -142 507 -70 248 -135 484 -146 525 -11 41
-24 89 -30 106 l-10 31 -380 0 -381 0 5 -21z"/>
</g>
</svg>
