<svg xmlns="http://www.w3.org/2000/svg" width="139" height="75" viewBox="0 0 139 75"><g id="Therapy_Gym_Al-Fitra" data-name="Therapy Gym Al-Fitra" transform="translate(-117.23 -193.75)"><line id="Line_16" data-name="Line 16" y2="6.535" transform="translate(200.569 238.602)" fill="#3a6cef"></line><path id="Path_18274" data-name="Path 18274" d="M267.611,387.163v6.558h-5.247v5.011a7.077,7.077,0,0,1-6.978,6.978H248.67v-6.558h7.135V372.21h6.558v14.954h5.247Z" transform="translate(-109.469 -148.588)" fill="#3722d1"></path><path id="Path_18275" data-name="Path 18275" d="M405.129,345.521H360.08v-6.56h5.484V314.3H372.2v11.1A9.171,9.171,0,0,1,374.93,325h13.747a9.4,9.4,0,0,1,9.367,9.078,10.344,10.344,0,0,0-6.926-2.439c-.394,0-.734.027-1.128.052,4.408.421,7.844,3.043,8.054,6.191v1.076h7.175s.706,3.8,5.779,6.574h0Zm-30.2-13.88a2.783,2.783,0,0,0-2.729,2.309v5.011h19.231V334.4a2.825,2.825,0,0,0-2.754-2.754Z" transform="translate(-202.303 -100.371)" fill="#3722d1"></path><path id="Path_18276" data-name="Path 18276" d="M727.3,335.965H736v.367c-.184,2.806-2.729,5.274-5.876,6.191l-13.306.033s8.909-3.8,10.48-6.592m16.522-.419a7.077,7.077,0,0,1-6.979,6.978h-5.824a9.023,9.023,0,0,0,4.119-1.968,6.345,6.345,0,0,0,2.124-5.247V310.7h6.559v24.846Z" transform="translate(-499.423 -97.373)" fill="#3722d1"></path><rect id="Rectangle_491" data-name="Rectangle 491" width="6.585" height="31.823" transform="translate(249.645 213.329)" fill="#3722d1"></rect><path id="Path_18277" data-name="Path 18277" d="M137.631,299.859a3.4,3.4,0,0,0,4.59,0,2.9,2.9,0,0,0,1-2.335,3.279,3.279,0,0,0-6.558,0,2.847,2.847,0,0,0,.971,2.335" transform="translate(-16.173 -83.684)" fill="#3722d1"></path><path id="Path_18278" data-name="Path 18278" d="M130.059,372.21h-3.516a9.359,9.359,0,0,0-9.313,9.286v2.939a8.786,8.786,0,0,0,2.624,6.453,9.006,9.006,0,0,0,6.376,2.833,9.9,9.9,0,0,1-2.439-6.874c0-.208.012-.438.03-.674a4.871,4.871,0,0,1,5.326-7.74l.914-5.7v6.131a4.87,4.87,0,1,1-6.128,7.439,10.5,10.5,0,0,0,1.956,5.006,5.769,5.769,0,0,0,4.119,2.414h6.637V378.348Z" transform="translate(0 -148.578)" fill="#3722d1"></path><path id="Path_18279" data-name="Path 18279" d="M180.351,299.859a3.4,3.4,0,0,0,4.59,0,2.9,2.9,0,0,0,1-2.335,3.279,3.279,0,0,0-6.558,0,2.852,2.852,0,0,0,.971,2.335" transform="translate(-51.731 -83.684)" fill="#3722d1"></path><path id="Path_18280" data-name="Path 18280" d="M156.53,453.246c.037.044.074.085.111.127-.025-.191-.047-.386-.064-.583-.02.154-.035.305-.047.456" transform="translate(-32.711 -215.65)" fill="#fff"></path><path id="Path_18281" data-name="Path 18281" d="M687.221,296.209a3.138,3.138,0,1,0,2.946-3.318,3.139,3.139,0,0,0-2.946,3.318" transform="translate(-474.682 -82.531)" fill="#00e266"></path><path id="Path_18282" data-name="Path 18282" d="M636.142,369.8a11.371,11.371,0,0,0,0,22.6c-6.533,1.127-12.634-4.773-12.485-11.3-.144-6.527,5.955-12.425,12.485-11.3" transform="translate(-421.759 -146.454)" fill="#013db9"></path><path id="Path_18283" data-name="Path 18283" d="M651.142,363.318c1.284-5.613-1.537-11.521-6.825-13.548a11.662,11.662,0,0,0-14.217,5.293c1.336-6.493,9.058-10.017,15.082-7.494,6.126,2.248,9.388,10.079,5.96,15.749" transform="translate(-427.148 -127.377)" fill="#00e266"></path><path id="Path_18284" data-name="Path 18284" d="M710.067,365.626c5.594-1.365,9.615-6.532,9.06-12.168a11.663,11.663,0,0,0-11.1-10.344c6.4-1.712,13.013,3.616,13.452,10.131.731,6.488-4.81,12.911-11.415,12.381" transform="translate(-492.031 -124.085)" fill="#013db9"></path><path id="Path_18285" data-name="Path 18285" d="M651.868,391.8a11.371,11.371,0,0,0,19.266,11.823c-2.456,6.158-10.676,8.272-16.163,4.729-5.636-3.291-7.474-11.573-3.1-16.552" transform="translate(-443.256 -164.885)" fill="#013db9"></path><path id="Path_18286" data-name="Path 18286" d="M364.08,559.1c.034-.288.047-.853.084-1.128.06-.37.132-.756.2-1.122a12.641,12.641,0,0,1,.444-1.464c.1-.223.173-.506.282-.716.057-.126.362-.758.417-.87l.1-.166.194-.334a15.889,15.889,0,0,1,2.361-3.075,19.954,19.954,0,0,1,3.675-2.892,22.842,22.842,0,0,1,4.253-1.988c7.593-2.635,15.861-1.849,23.59-.263,9.632,1.869,19.5,3.864,29.319,4.117,5.742.146,11.927.258,17.075-2.6a10.962,10.962,0,0,0,4.1-4.1,10.527,10.527,0,0,1-3.578,4.874c-5.6,4.221-13.881,4.444-20.638,4.49a113.082,113.082,0,0,1-21.04-2.372c-7.63-1.445-15.415-3.62-23.221-2.843a29.828,29.828,0,0,0-5.64,1.048c-5.5,1.554-10.743,5.557-11.979,11.4" transform="translate(-205.82 -290.347)" fill="#013db9"></path><path id="Path_18287" data-name="Path 18287" d="M187.662,235.522c-.578-5.838,5.593-9.1,10.542-9.955a28.632,28.632,0,0,1,6.867-.319c7.754.438,15.493,2.925,23.121,3.325,4.376.178,10.654.491,13.38-3.6-1.266,3.952-5.846,5.326-9.538,5.88a42.588,42.588,0,0,1-11.553-.01c-5.8-.714-11.653-2.208-17.474-2.652a23.685,23.685,0,0,0-7.933.555c-3.539.89-6.74,2.919-7.412,6.78" transform="translate(-58.593 -25.986)" fill="#013db9"></path><path id="Path_18288" data-name="Path 18288" d="M532.463,204.005v-7.311H529.73v-.974h6.57v.974h-2.744v7.311Z" transform="translate(-343.529 -1.64)" fill="#3722d1"></path><path id="Path_18289" data-name="Path 18289" d="M532.818,203.266h-1.465v-7.311H528.62V194.61h6.941v1.345h-2.744v7.311Zm-1.093-.371h.721v-7.311h2.744v-.6h-6.2v.6h2.733Z" transform="translate(-342.605 -0.716)" fill="#3722d1"></path><path id="Path_18290" data-name="Path 18290" d="M574.84,204.014V195.73h1.018V198.7a2.29,2.29,0,0,1,1.8-.823,1.834,1.834,0,0,1,1.859.986,3.329,3.329,0,0,1,.213,1.345v3.806h-1.018v-3.806q0-1.456-1.269-1.457a1.642,1.642,0,0,0-.848.233,1.334,1.334,0,0,0-.568.637,2.879,2.879,0,0,0-.173,1.108v3.284Z" transform="translate(-381.094 -1.648)" fill="#3722d1"></path><path id="Path_18291" data-name="Path 18291" d="M578.986,203.266H577.6v-3.992c0-.867-.344-1.271-1.083-1.271a1.489,1.489,0,0,0-.754.206,1.131,1.131,0,0,0-.491.55,2.743,2.743,0,0,0-.158,1.036v3.47h-1.39V194.61h1.39v2.714a2.456,2.456,0,0,1,1.616-.567,2.012,2.012,0,0,1,2.029,1.095,3.488,3.488,0,0,1,.23,1.422v3.992Zm-1.018-.371h.645v-3.62a3.193,3.193,0,0,0-.2-1.266,1.651,1.651,0,0,0-1.69-.878,2.093,2.093,0,0,0-1.663.759l-.325.374v-3.281h-.645V202.9h.645v-3.1a3.051,3.051,0,0,1,.188-1.182,1.511,1.511,0,0,1,.645-.724,1.841,1.841,0,0,1,.942-.258c.664,0,1.455.285,1.455,1.643V202.9Z" transform="translate(-380.162 -0.716)" fill="#3722d1"></path><path id="Path_18292" data-name="Path 18292" d="M615.673,212.75l1.049.132a2.45,2.45,0,0,1-2.637,1.941,2.7,2.7,0,0,1-2.143-.867,3.252,3.252,0,0,1-.723-2.223,3.474,3.474,0,0,1,.7-2.255,2.562,2.562,0,0,1,2.111-.929,2.472,2.472,0,0,1,2.054.917,3.417,3.417,0,0,1,.679,2.2c0,.062,0,.154-.007.277h-4.478a2.45,2.45,0,0,0,.485,1.425,1.679,1.679,0,0,0,2.912-.624m-3.341-1.646h3.355a2.047,2.047,0,0,0-.389-1.137,1.554,1.554,0,0,0-1.256-.583,1.6,1.6,0,0,0-1.212.5,1.9,1.9,0,0,0-.5,1.224" transform="translate(-411.392 -12.319)" fill="#3722d1"></path><path id="Path_18293" data-name="Path 18293" d="M613.16,214.067a2.889,2.889,0,0,1-2.282-.93,3.442,3.442,0,0,1-.768-2.345,3.67,3.67,0,0,1,.738-2.372,2.756,2.756,0,0,1,2.255-1,2.661,2.661,0,0,1,2.2.987,3.618,3.618,0,0,1,.719,2.32c0,.064,0,.158-.007.283l-.007.179h-4.456a2.186,2.186,0,0,0,.427,1.125,1.5,1.5,0,0,0,2.6-.568l.05-.139,1.408.176-.055.206a2.63,2.63,0,0,1-2.818,2.077m-.057-6.275a2.373,2.373,0,0,0-1.966.86,3.309,3.309,0,0,0-.656,2.138,3.091,3.091,0,0,0,.676,2.1,2.5,2.5,0,0,0,2,.8,2.252,2.252,0,0,0,2.4-1.6l-.687-.087a1.749,1.749,0,0,1-1.7,1.214,1.791,1.791,0,0,1-1.477-.679,2.65,2.65,0,0,1-.523-1.531l-.012-.2h4.495c0-.035,0-.065,0-.091a3.264,3.264,0,0,0-.637-2.089,2.285,2.285,0,0,0-1.91-.845m1.863,2.557h-3.757l.013-.2a2.109,2.109,0,0,1,.547-1.34,1.784,1.784,0,0,1,1.348-.555,1.742,1.742,0,0,1,1.4.652,2.219,2.219,0,0,1,.431,1.239Zm-3.351-.372h2.937a1.683,1.683,0,0,0-.322-.832,1.365,1.365,0,0,0-1.113-.518,1.414,1.414,0,0,0-1.078.438,1.668,1.668,0,0,0-.424.912" transform="translate(-410.468 -11.378)" fill="#3722d1"></path><path id="Path_18294" data-name="Path 18294" d="M651.6,214.676v-6h.91v.91q.578-1.044,1.3-1.043a2.006,2.006,0,0,1,1.049.327l-.352.942a1.457,1.457,0,0,0-.748-.22.957.957,0,0,0-.974.759,3.927,3.927,0,0,0-.169,1.187v3.14Z" transform="translate(-445.016 -12.31)" fill="#3722d1"></path><path id="Path_18295" data-name="Path 18295" d="M651.88,213.928h-1.39v-6.376h1.283v.484a1.446,1.446,0,0,1,1.115-.617,2.2,2.2,0,0,1,1.145.354l.131.08-.483,1.294-.191-.114a1.269,1.269,0,0,0-.652-.194.773.773,0,0,0-.8.63,3.737,3.737,0,0,0-.161,1.132v3.326Zm-1.018-.371h.646V210.6a4.152,4.152,0,0,1,.178-1.244,1.142,1.142,0,0,1,1.15-.89,1.576,1.576,0,0,1,.647.144l.223-.6a1.741,1.741,0,0,0-.82-.223c-.406,0-.79.319-1.138.947l-.349.629v-1.443h-.54v5.633Z" transform="translate(-444.092 -11.378)" fill="#3722d1"></path><path id="Path_18296" data-name="Path 18296" d="M676.878,213.917a3.345,3.345,0,0,1-2.211.878,2.321,2.321,0,0,1-1.432-.414,1.53,1.53,0,0,1-.615-1.306,1.582,1.582,0,0,1,.723-1.388,2.4,2.4,0,0,1,.734-.334,6.714,6.714,0,0,1,.905-.158,8.78,8.78,0,0,0,1.816-.352c0-.137.007-.226.007-.263a1.118,1.118,0,0,0-.288-.873,1.708,1.708,0,0,0-1.162-.345,1.822,1.822,0,0,0-1.029.233,1.532,1.532,0,0,0-.533.91l-1-.137a2.069,2.069,0,0,1,1.35-1.64,4.087,4.087,0,0,1,1.363-.208,2.45,2.45,0,0,1,1.953.634,1.5,1.5,0,0,1,.313.691,5.66,5.66,0,0,1,.05.942v1.356c0,.8,0,1.222.007,1.281a2.883,2.883,0,0,0,.32,1.231h-1.061a1.954,1.954,0,0,1-.21-.738m-.082-2.273a7.606,7.606,0,0,1-1.665.389,5.309,5.309,0,0,0-.709.132,1.015,1.015,0,0,0-.578.4.837.837,0,0,0-.144.485.819.819,0,0,0,.382.729,1.462,1.462,0,0,0,.83.22,1.737,1.737,0,0,0,1.722-.961,2.468,2.468,0,0,0,.163-1.018Z" transform="translate(-462.525 -12.294)" fill="#3722d1"></path><path id="Path_18297" data-name="Path 18297" d="M673.743,214.059a2.515,2.515,0,0,1-1.544-.453,1.713,1.713,0,0,1-.689-1.455,1.763,1.763,0,0,1,.8-1.542,2.628,2.628,0,0,1,.791-.359,6.679,6.679,0,0,1,.929-.163,9.8,9.8,0,0,0,1.656-.3c0-.062,0-.106,0-.129a.951.951,0,0,0-.225-.733,1.536,1.536,0,0,0-1.039-.3,1.681,1.681,0,0,0-.925.2,1.368,1.368,0,0,0-.459.8l-.042.159-1.361-.188.042-.2a2.255,2.255,0,0,1,1.469-1.775,4.3,4.3,0,0,1,1.427-.218,2.627,2.627,0,0,1,2.1.7,1.694,1.694,0,0,1,.354.775,5.842,5.842,0,0,1,.054.977v1.356c0,.981,0,1.231.005,1.267a2.707,2.707,0,0,0,.3,1.153l.158.278h-1.494l-.052-.1a1.993,1.993,0,0,1-.174-.485,3.419,3.419,0,0,1-2.077.726m.686-5.806a1.89,1.89,0,0,1,1.286.392,1.286,1.286,0,0,1,.352,1.013c0,.039,0,.127-.007.27l0,.127-.119.044a8.984,8.984,0,0,1-1.856.362,6.408,6.408,0,0,0-.875.151,2.2,2.2,0,0,0-.681.308,1.392,1.392,0,0,0-.64,1.234,1.341,1.341,0,0,0,.54,1.157,2.151,2.151,0,0,0,1.321.377,3.187,3.187,0,0,0,2.091-.835l.268-.23.037.352a1.927,1.927,0,0,0,.141.575h.651a3.448,3.448,0,0,1-.213-1.033c0-.042-.007-.228-.007-1.294v-1.356a5.18,5.18,0,0,0-.047-.905,1.333,1.333,0,0,0-.275-.609,2.3,2.3,0,0,0-1.811-.568,3.9,3.9,0,0,0-1.3.2,1.827,1.827,0,0,0-1.182,1.309l.634.087a1.609,1.609,0,0,1,.56-.857,1.974,1.974,0,0,1,1.137-.268m-.441,5.008a1.631,1.631,0,0,1-.932-.251,1,1,0,0,1-.466-.884,1.034,1.034,0,0,1,.176-.588,1.194,1.194,0,0,1,.674-.474,5.609,5.609,0,0,1,.741-.139,7.464,7.464,0,0,0,1.62-.377l.256-.1v.654a2.609,2.609,0,0,1-.181,1.1,1.91,1.91,0,0,1-1.888,1.068m1.7-2.277a9.253,9.253,0,0,1-1.452.308,5.243,5.243,0,0,0-.682.126.834.834,0,0,0-.474.324.664.664,0,0,0-.116.384.631.631,0,0,0,.3.573,1.285,1.285,0,0,0,.728.189,1.55,1.55,0,0,0,1.554-.857,2.32,2.32,0,0,0,.144-.937v-.111Z" transform="translate(-461.602 -11.37)" fill="#3722d1"></path><path id="Path_18298" data-name="Path 18298" d="M713.04,216.974v-8.3h.93v.78a2.041,2.041,0,0,1,1.74-.91,2.257,2.257,0,0,1,2.248,1.507,4.156,4.156,0,0,1,.3,1.583,3.023,3.023,0,0,1-1.288,2.788,2.472,2.472,0,0,1-1.324.4,1.923,1.923,0,0,1-1.583-.759v2.92Zm.924-5.264a3.057,3.057,0,0,0,.339,1.514,1.368,1.368,0,0,0,1.269.748,1.4,1.4,0,0,0,1.3-.785,3.2,3.2,0,0,0,.345-1.564,3.1,3.1,0,0,0-.345-1.521,1.361,1.361,0,0,0-1.256-.766,1.411,1.411,0,0,0-1.288.81,3.173,3.173,0,0,0-.365,1.564" transform="translate(-496.186 -12.31)" fill="#3722d1"></path><path id="Path_18299" data-name="Path 18299" d="M713.32,216.228h-1.39v-8.674h1.3v.466a2.186,2.186,0,0,1,1.554-.6,2.435,2.435,0,0,1,2.419,1.621,4.339,4.339,0,0,1,.31,1.655,3.208,3.208,0,0,1-1.375,2.946,2.661,2.661,0,0,1-1.423.424,2.107,2.107,0,0,1-1.4-.488Zm-1.018-.372h.645v-3.267l.332.417a1.731,1.731,0,0,0,1.437.689,2.3,2.3,0,0,0,1.227-.367,2.829,2.829,0,0,0,1.2-2.63,3.994,3.994,0,0,0-.282-1.512,2.069,2.069,0,0,0-2.077-1.391,1.85,1.85,0,0,0-1.589.833l-.337.469v-1.17H712.3v7.93Zm2.345-2.63a1.545,1.545,0,0,1-1.43-.842,3.24,3.24,0,0,1-.364-1.6,3.382,3.382,0,0,1,.387-1.653,1.59,1.59,0,0,1,1.45-.907,1.542,1.542,0,0,1,1.418.862,3.286,3.286,0,0,1,.369,1.609,3.387,3.387,0,0,1-.369,1.655,1.579,1.579,0,0,1-1.462.88m.044-4.636a1.229,1.229,0,0,0-1.125.714,3.014,3.014,0,0,0-.34,1.474,2.889,2.889,0,0,0,.315,1.423,1.182,1.182,0,0,0,1.107.652,1.212,1.212,0,0,0,1.137-.689,3.016,3.016,0,0,0,.322-1.474,2.937,2.937,0,0,0-.322-1.43,1.175,1.175,0,0,0-1.093-.671" transform="translate(-495.262 -11.378)" fill="#3722d1"></path><path id="Path_18300" data-name="Path 18300" d="M748.566,217.627l-.112-.954a2.311,2.311,0,0,0,.583.087.956.956,0,0,0,.873-.428,4.775,4.775,0,0,0,.313-.759c.03-.084.059-.166.089-.245l-2.273-6.017h1.093l1.251,3.479c.171.478.317.941.434,1.388a13.92,13.92,0,0,1,.421-1.37l1.281-3.5h1.018l-2.28,6.106a13.71,13.71,0,0,1-.572,1.363,1.614,1.614,0,0,1-1.457.974,2.046,2.046,0,0,1-.662-.126" transform="translate(-525.334 -12.951)" fill="#3722d1"></path><path id="Path_18301" data-name="Path 18301" d="M747.877,217.032a2.223,2.223,0,0,1-.719-.136l-.111-.039-.159-1.341.263.07a2.19,2.19,0,0,0,.536.082.776.776,0,0,0,.716-.34,4.286,4.286,0,0,0,.3-.723c.022-.062.044-.122.065-.183l-2.344-6.2h1.492l1.294,3.6c.092.258.178.515.257.766.077-.257.161-.506.248-.748l1.326-3.62h1.415l-2.374,6.356a13.421,13.421,0,0,1-.582,1.385,1.789,1.789,0,0,1-1.62,1.07m-.488-.453a1.73,1.73,0,0,0,.49.08,1.428,1.428,0,0,0,1.294-.877,13.827,13.827,0,0,0,.562-1.34l2.186-5.853h-.62l-1.237,3.376a14.012,14.012,0,0,0-.416,1.351l-.178.7-.183-.7c-.116-.441-.26-.9-.427-1.371l-1.205-3.356h-.694l2.2,5.831-.023.065c-.029.079-.059.159-.087.241a4.377,4.377,0,0,1-.332.8,1.132,1.132,0,0,1-1.029.513,2.148,2.148,0,0,1-.369-.035Z" transform="translate(-523.987 -12.044)" fill="#3722d1"></path><path id="Path_18302" data-name="Path 18302" d="M813.62,200.042v-.974l3.5-.007v3.071a5.4,5.4,0,0,1-3.43,1.3,4.647,4.647,0,0,1-2.161-.5,3.487,3.487,0,0,1-1.557-1.532,4.762,4.762,0,0,1-.515-2.218,5.08,5.08,0,0,1,.471-2.191,3.421,3.421,0,0,1,1.482-1.621,4.575,4.575,0,0,1,2.2-.515,3.308,3.308,0,0,1,2.763,1.1,3.681,3.681,0,0,1,.629,1.356l-.992.27a2.274,2.274,0,0,0-1.256-1.576,2.94,2.94,0,0,0-1.137-.213,2.791,2.791,0,0,0-2.186.83,3.562,3.562,0,0,0-.842,2.486,2.969,2.969,0,0,0,1.5,2.959,3.408,3.408,0,0,0,1.546.364,3.894,3.894,0,0,0,1.281-.233,3.222,3.222,0,0,0,1.137-.629V200.04H813.62Z" transform="translate(-576.532 -0.924)" fill="#3722d1"></path><path id="Path_18303" data-name="Path 18303" d="M812.771,202.694a4.861,4.861,0,0,1-2.247-.516,3.7,3.7,0,0,1-1.638-1.613,4.969,4.969,0,0,1-.537-2.3,5.267,5.267,0,0,1,.49-2.272,3.63,3.63,0,0,1,1.563-1.705,4.777,4.777,0,0,1,2.287-.536,3.49,3.49,0,0,1,2.909,1.177,3.854,3.854,0,0,1,.662,1.425l.047.178-1.346.365-.052-.174a2.085,2.085,0,0,0-1.15-1.459,2.763,2.763,0,0,0-1.065-.2,2.622,2.622,0,0,0-2.047.768,3.4,3.4,0,0,0-.795,2.362,2.774,2.774,0,0,0,1.392,2.791,3.326,3.326,0,0,0,2.684.122,3.186,3.186,0,0,0,1.013-.536V199.3h-2.431v-1.345l3.876-.007V201.3l-.069.055a5.6,5.6,0,0,1-3.546,1.341m-.081-8.572a4.423,4.423,0,0,0-2.111.493,3.256,3.256,0,0,0-1.4,1.536,4.917,4.917,0,0,0-.453,2.112,4.6,4.6,0,0,0,.495,2.133,3.326,3.326,0,0,0,1.477,1.452,4.485,4.485,0,0,0,2.076.476,5.218,5.218,0,0,0,3.244-1.2v-2.795l-3.133.005v.6h2.431v1.807l-.062.055a3.437,3.437,0,0,1-1.2.666,3.7,3.7,0,0,1-2.969-.141,3.15,3.15,0,0,1-1.6-3.125,3.76,3.76,0,0,1,.89-2.612,2.981,2.981,0,0,1,2.324-.89,3.155,3.155,0,0,1,1.209.228,2.391,2.391,0,0,1,1.308,1.522l.64-.174a3.311,3.311,0,0,0-.545-1.112,3.155,3.155,0,0,0-2.62-1.034" transform="translate(-575.608 0)" fill="#3722d1"></path><path id="Path_18304" data-name="Path 18304" d="M861.186,217.627l-.112-.954a2.311,2.311,0,0,0,.583.087.956.956,0,0,0,.873-.428,4.787,4.787,0,0,0,.313-.759c.03-.084.059-.166.089-.245l-2.273-6.017h1.093L863,212.79c.171.478.317.941.434,1.388a13.92,13.92,0,0,1,.421-1.37l1.281-3.5h1.018l-2.28,6.106a13.7,13.7,0,0,1-.572,1.363,1.614,1.614,0,0,1-1.457.974,2.038,2.038,0,0,1-.662-.126" transform="translate(-619.148 -12.951)" fill="#3722d1"></path><path id="Path_18305" data-name="Path 18305" d="M860.5,217.032a2.222,2.222,0,0,1-.719-.136l-.111-.039-.159-1.341.263.07a2.19,2.19,0,0,0,.536.082.776.776,0,0,0,.716-.34,4.274,4.274,0,0,0,.3-.723l.065-.183-2.344-6.2h1.492l1.294,3.6c.092.258.178.515.256.766.077-.257.161-.506.248-.748l1.326-3.62h1.415l-2.374,6.356a13.417,13.417,0,0,1-.582,1.385,1.789,1.789,0,0,1-1.62,1.07m-.489-.453a1.728,1.728,0,0,0,.489.08,1.428,1.428,0,0,0,1.294-.877,13.855,13.855,0,0,0,.562-1.34l2.186-5.853h-.62l-1.237,3.376a13.978,13.978,0,0,0-.416,1.351l-.178.7-.183-.7c-.116-.441-.26-.9-.428-1.371l-1.205-3.356h-.694l2.2,5.831-.023.065c-.028.079-.059.159-.087.241a4.38,4.38,0,0,1-.332.8,1.132,1.132,0,0,1-1.029.513,2.133,2.133,0,0,1-.369-.035Z" transform="translate(-617.8 -12.044)" fill="#3722d1"></path><path id="Path_18306" data-name="Path 18306" d="M898.6,214.676v-6h.91v.842a2.037,2.037,0,0,1,1.821-.974,1.593,1.593,0,0,1,1.7,1.049,2.162,2.162,0,0,1,1.852-1.049q1.858,0,1.859,2.017v4.121H905.72V210.9q0-1.024-.453-1.313a1.143,1.143,0,0,0-.615-.163q-1.469,0-1.47,1.77v3.485h-1.018v-3.9q0-1.358-1.061-1.356a1.287,1.287,0,0,0-1.319.885,3.656,3.656,0,0,0-.169,1.256v3.115H898.6Z" transform="translate(-650.727 -12.31)" fill="#3722d1"></path><path id="Path_18307" data-name="Path 18307" d="M905.993,213.928H904.6v-3.967c0-.612-.122-1-.365-1.157a.948.948,0,0,0-.516-.134c-.875,0-1.284.5-1.284,1.586v3.672h-1.39v-4.086c0-1.049-.5-1.17-.875-1.17a1.105,1.105,0,0,0-1.145.764,3.5,3.5,0,0,0-.158,1.19v3.3h-1.39v-6.376h1.283v.5a2.231,2.231,0,0,1,1.636-.634,1.818,1.818,0,0,1,1.737.872,2.28,2.28,0,0,1,1.812-.872c1.338,0,2.045.761,2.045,2.2Zm-1.018-.371h.645v-3.935c0-1.249-.531-1.831-1.673-1.831a1.974,1.974,0,0,0-1.7.967l-.206.3-.122-.345a1.416,1.416,0,0,0-1.52-.925,1.844,1.844,0,0,0-1.665.889l-.342.53v-1.286h-.54v5.633h.645v-2.929a3.765,3.765,0,0,1,.183-1.323,1.461,1.461,0,0,1,1.492-1c.568,0,1.247.268,1.247,1.542v3.715h.645v-3.3c0-1.618.9-1.956,1.655-1.956a1.335,1.335,0,0,1,.714.191c.364.233.54.713.54,1.47v3.594Z" transform="translate(-649.795 -11.378)" fill="#3722d1"></path></g></svg>